# generated from PmQm by Jehee Lee
:FULLY-SPECIFIED
:DEGREES
573
root 3.00531 31.9612 -21.5002 -151.507 15.1357 -176.805
RightUpLeg -78.7966 4.66098 -2.44785
RightLeg 52.3924 -6.40599 -9.21514
RightFoot -3.833 -0.253681 3.46282
RightToes -0.000541893 -0.000659172 -0.000493268
Spine 16.081 -0.506445 3.8666
Spine1 32.4851 -1.92063 7.59048
HEad -42.1495 -28.6559 18.6919
LeftShoulder1 -3.88251e-019 -0 -3.92111e-022
LeftArm -28.3463 -6.21185 -83.1419
LeftForeArm 12.7099 -2.92731 -1.60159
LeftHand -0.251567 -9.14816 2.40157
RightShoulder 7.45443e-017 -2.42657e-020 1.96277e-018
RightArm -14.0571 -0.101853 65.608
RightForeArm -26.6728 13.4988 11.001
RightHand 1.32997 11.9274 8.41301
LeftUpLeg -79.237 -3.38421 12.5275
LeftLeg 51.6519 -2.51611 -2.94447
LeftFoot -4.05344 0.275284 -3.94335
LeftToes 3.91355e-005 3.11907e-005 -4.10385e-006
574
root 3.07007 31.0724 -21.2179 -153.888 14.4337 -175.846
RightUpLeg -79.4192 4.59587 -0.794277
RightLeg 57.1713 -5.60295 -9.714
RightFoot -5.31903 -0.212106 3.3421
RightToes -0.000541893 -0.000659172 -0.000493268
Spine 16.3789 -0.583035 3.73995
Spine1 33.1085 -2.06922 7.29031
HEad -41.959 -28.2429 18.9493
LeftShoulder1 -3.88251e-019 -0 -3.92111e-022
LeftArm -28.1082 -4.53694 -82.8238
LeftForeArm 13.4397 -2.5972 -2.2889
LeftHand 0.188534 -9.96688 -1.01214
RightShoulder 7.45443e-017 -2.42657e-020 1.96277e-018
RightArm -5.96119 -2.06494 64.027
RightForeArm -27.1967 17.0985 10.0932
RightHand 1.00743 11.6878 6.38211
LeftUpLeg -80.2438 -3.13595 13.265
LeftLeg 56.7299 -2.79509 -4.05771
LeftFoot -5.54523 0.241352 -4.10924
LeftToes 3.91355e-005 3.11907e-005 -4.10385e-006
575
root 3.12579 30.2228 -20.9178 -156.548 13.7513 -175.043
RightUpLeg -79.602 4.49598 0.565203
RightLeg 61.4584 -4.91871 -10.2412
RightFoot -6.64812 -0.181648 3.32821
RightToes -0.000541893 -0.000659172 -0.000493268
Spine 16.6349 -0.655674 3.57407
Spine1 33.645 -2.17957 6.93972
HEad -41.8566 -27.9823 19.0058
LeftShoulder1 -3.88251e-019 -0 -3.92111e-022
LeftArm -27.7029 -2.84265 -82.5356
LeftForeArm 15.729 -2.98126 -3.12399
LeftHand 0.559707 -10.5459 -3.64694
RightShoulder 7.45443e-017 -2.42657e-020 1.96277e-018
RightArm 1.34884 -3.03948 62.766
RightForeArm -25.037 19.8337 8.42004
RightHand 0.770787 11.6086 4.80692
LeftUpLeg -80.7955 -3.10468 13.9085
LeftLeg 61.1498 -2.87236 -5.04542
LeftFoot -6.58939 0.213224 -4.18553
LeftToes 3.91355e-005 3.11907e-005 -4.10385e-006
576
root 3.16854 29.441 -20.5875 -159.801 13.141 -174.634
RightUpLeg -79.1116 4.40704 1.34435
RightLeg 65.2901 -4.34546 -10.8582
RightFoot -7.59678 -0.153738 3.12211
RightToes -0.000541893 -0.000659172 -0.000493268
Spine 16.7481 -0.714646 3.50827
Spine1 33.8883 -2.26747 6.82832
HEad -41.8942 -28.299 18.8188
LeftShoulder1 -3.88251e-019 -0 -3.92111e-022
LeftArm -27.6876 -1.08024 -82.6786
LeftForeArm 18.0433 -3.50723 -4.01338
LeftHand 0.807662 -10.9888 -5.27908
RightShoulder 7.45443e-017 -2.42657e-020 1.96277e-018
RightArm 4.15076 -3.97559 61.6479
RightForeArm -22.2424 20.596 7.75354
RightHand 1.06298 11.1728 6.99263
LeftUpLeg -80.555 -3.46025 14.2467
LeftLeg 64.8813 -2.90029 -6.06453
LeftFoot -7.29896 0.197628 -4.35888
LeftToes 3.91355e-005 3.11907e-005 -4.10385e-006
577
root 3.21751 28.7233 -20.2377 -163.236 12.5132 -174.473
RightUpLeg -78.3052 4.45626 1.63849
RightLeg 68.6487 -3.91488 -11.7127
RightFoot -8.08337 -0.137612 2.90849
RightToes -0.000541893 -0.000659172 -0.000493268
Spine 16.6837 -0.710662 3.51694
Spine1 33.7707 -2.24064 6.90447
HEad -42.4921 -28.8271 18.915
LeftShoulder1 -3.88251e-019 -0 -3.92111e-022
LeftArm -27.9675 0.745636 -83.135
LeftForeArm 19.8173 -4.40963 -4.83799
LeftHand 0.898207 -11.1264 -5.86252
RightShoulder 7.45443e-017 -2.42657e-020 1.96277e-018
RightArm 6.73866 -5.70353 60.8615
RightForeArm -24.0788 21.3828 7.34486
RightHand 1.37397 10.5199 9.53566
LeftUpLeg -79.9159 -4.09082 14.4338
LeftLeg 67.9949 -2.85289 -6.99312
LeftFoot -7.76371 0.188587 -4.54642
LeftToes 3.91355e-005 3.11907e-005 -4.10385e-006
578
root 3.27647 28.1192 -19.8549 -166.48 11.9093 -174.224
RightUpLeg -77.2684 4.8458 1.78375
RightLeg 71.2132 -3.64403 -12.7214
RightFoot -8.40591 -0.139411 3.21616
RightToes -0.000541893 -0.000659172 -0.000493268
Spine 16.5624 -0.681696 3.50593
Spine1 33.5342 -2.15961 6.95217
HEad -43.6593 -28.7732 19.501
LeftShoulder1 -3.88251e-019 -0 -3.92111e-022
LeftArm -28.1758 2.36547 -83.5356
LeftForeArm 22.1876 -5.63282 -5.5079
LeftHand 0.83895 -10.7091 -5.60457
RightShoulder 7.45443e-017 -2.42657e-020 1.96277e-018
RightArm 10.9645 -7.17143 60.2186
RightForeArm -28.44 22.6136 6.87278
RightHand 1.40498 10.2721 9.92982
LeftUpLeg -79.0131 -4.48273 14.5402
LeftLeg 70.2965 -2.84462 -7.95476
LeftFoot -7.87746 0.188734 -4.67925
LeftToes 3.91355e-005 3.11907e-005 -4.10385e-006
579
root 3.30651 27.6712 -19.4433 -169.36 11.4035 -174.365
RightUpLeg -76.2347 5.20272 1.43645
RightLeg 72.9219 -3.44528 -13.4944
RightFoot -8.58306 -0.152009 3.89455
RightToes -0.000541893 -0.000659172 -0.000493268
Spine 16.3568 -0.783927 3.29018
Spine1 33.1235 -2.26232 6.60124
HEad -44.992 -28.0392 20.2494
LeftShoulder1 -3.88251e-019 -0 -3.92111e-022
LeftArm -28.4345 3.22942 -83.7228
LeftForeArm 23.7061 -6.0115 -5.63114
LeftHand 0.780344 -10.4767 -5.27174
RightShoulder 7.45443e-017 -2.42657e-020 1.96277e-018
RightArm 10.9288 -9.33588 61.1217
RightForeArm -27.8756 23.5083 6.4549
RightHand 1.42851 10.6745 9.83377
LeftUpLeg -77.9093 -4.51103 13.9125
LeftLeg 71.5471 -3.01001 -9.14167
LeftFoot -7.58319 0.204858 -4.85746
LeftToes 3.91355e-005 3.11907e-005 -4.10385e-006
